<svg width="32" height="32" viewBox="0 0 32 32" fill="none" xmlns="http://www.w3.org/2000/svg">
  <defs>
    <linearGradient id="grad1" x1="0%" y1="0%" x2="100%" y2="100%">
      <stop offset="0%" style="stop-color:#3B82F6;stop-opacity:1" />
      <stop offset="100%" style="stop-color:#8B5CF6;stop-opacity:1" />
    </linearGradient>
    <linearGradient id="grad2" x1="0%" y1="0%" x2="100%" y2="0%">
      <stop offset="0%" style="stop-color:#10B981;stop-opacity:1" />
      <stop offset="100%" style="stop-color:#3B82F6;stop-opacity:1" />
    </linearGradient>
  </defs>
  
  <!-- Background circle -->
  <circle cx="16" cy="16" r="15" fill="url(#grad1)" stroke="#1F2937" stroke-width="1"/>
  
  <!-- Chart line -->
  <path d="M6 20 L10 18 L14 22 L18 16 L22 14 L26 12" stroke="url(#grad2)" stroke-width="2" stroke-linecap="round" stroke-linejoin="round" fill="none"/>
  
  <!-- AI brain circuit pattern -->
  <circle cx="12" cy="10" r="1.5" fill="#F59E0B" opacity="0.8"/>
  <circle cx="20" cy="8" r="1.5" fill="#EF4444" opacity="0.8"/>
  <circle cx="24" cy="16" r="1.5" fill="#10B981" opacity="0.8"/>
  <circle cx="20" cy="24" r="1.5" fill="#8B5CF6" opacity="0.8"/>
  <circle cx="12" cy="22" r="1.5" fill="#3B82F6" opacity="0.8"/>
  <circle cx="8" cy="16" r="1.5" fill="#F59E0B" opacity="0.8"/>
  
  <!-- Connection lines -->
  <path d="M12 10 L20 8" stroke="#F59E0B" stroke-width="0.5" opacity="0.6"/>
  <path d="M20 8 L24 16" stroke="#EF4444" stroke-width="0.5" opacity="0.6"/>
  <path d="M24 16 L20 24" stroke="#10B981" stroke-width="0.5" opacity="0.6"/>
  <path d="M20 24 L12 22" stroke="#8B5CF6" stroke-width="0.5" opacity="0.6"/>
  <path d="M12 22 L8 16" stroke="#3B82F6" stroke-width="0.5" opacity="0.6"/>
  <path d="M8 16 L12 10" stroke="#F59E0B" stroke-width="0.5" opacity="0.6"/>
  
  <!-- Center trading symbol -->
  <circle cx="16" cy="16" r="3" fill="white" opacity="0.9"/>
  <path d="M16 13 L16 19 M13 16 L19 16" stroke="#1F2937" stroke-width="1.5" stroke-linecap="round"/>
</svg> 